<?xml version="1.0" standalone="no"?>
<!DOCTYPE svg PUBLIC "-//W3C//DTD SVG 20010904//EN"
 "http://www.w3.org/TR/2001/REC-SVG-20010904/DTD/svg10.dtd">
<svg version="1.0" xmlns="http://www.w3.org/2000/svg"
 width="1024.000000pt" height="1024.000000pt" viewBox="0 0 1024.000000 1024.000000"
 preserveAspectRatio="xMidYMid meet">
<metadata>
Created by potrace 1.14, written by Peter Selinger 2001-2017
</metadata>
<g transform="translate(0.000000,1024.000000) scale(0.100000,-0.100000)"
fill="#000000" stroke="none">
<path d="M2700 10233 c-51 -9 -175 -45 -187 -55 -7 -6 -13 -7 -13 -4 0 4 -26
-7 -57 -24 -137 -75 -216 -161 -261 -282 -21 -56 -21 -68 -22 -868 0 -446 3
-809 8 -806 5 3 14 23 22 45 7 23 18 41 23 41 6 0 8 3 4 6 -10 10 81 162 143
238 48 60 192 192 249 230 76 50 216 123 246 128 11 2 22 5 25 8 10 11 117 40
196 53 44 8 124 14 177 13 54 -1 97 3 97 7 0 5 5 5 12 1 6 -4 59 -6 117 -6
128 3 79 3 369 0 134 -2 246 0 249 5 2 4 9 4 15 0 16 -9 299 -10 305 0 2 4 9
4 15 0 16 -9 299 -10 305 0 2 4 9 4 15 0 16 -9 299 -10 305 0 2 4 9 4 15 1 13
-8 186 -9 194 -1 3 3 16 3 28 -1 11 -4 62 -6 111 -5 50 1 100 3 113 3 12 0 65
0 117 0 52 0 106 0 120 0 14 0 68 0 120 0 52 0 106 0 120 0 14 0 68 0 120 0
52 0 106 0 120 0 14 0 68 0 120 0 52 0 106 0 120 0 14 0 68 0 120 0 52 0 106
0 120 0 14 0 68 0 120 0 52 0 107 0 123 0 30 -1 221 0 237 0 6 0 54 -1 108 -2
53 -2 97 0 97 4 0 4 8 4 17 1 20 -8 62 -7 118 2 234 37 423 188 508 405 52
135 55 305 6 440 -1 3 -5 16 -10 30 -5 14 -14 34 -21 45 -6 11 -21 37 -32 58
-27 51 -128 152 -191 192 -54 35 -92 53 -170 82 -48 17 -144 18 -2475 19
-1334 1 -2436 -1 -2450 -3z"/>
<path d="M2670 7804 c-36 -7 -74 -18 -85 -23 -11 -5 -38 -18 -60 -27 -87 -39
-186 -123 -245 -209 -28 -41 -80 -144 -87 -170 -29 -125 -29 -128 -28 -3752
l0 -3618 634 -3 c640 -2 664 -1 644 32 -9 14 -9 126 0 126 5 0 5 5 2 10 -9 14
-10 313 -2 327 4 5 4 13 1 16 -5 5 -7 161 -3 277 0 8 -1 51 -2 95 -1 44 -1 85
1 90 1 6 1 12 0 15 -6 16 -4 130 3 130 5 0 5 5 1 12 -6 9 -8 136 -3 164 1 5 0
11 -1 14 -6 16 -4 130 3 130 5 0 5 5 2 10 -9 14 -10 313 -2 327 4 5 4 13 1 16
-5 5 -7 161 -3 277 0 8 -1 51 -2 95 -1 44 -1 85 1 90 1 6 1 12 0 15 -6 16 -4
130 3 130 5 0 5 5 2 10 -9 14 -10 313 -2 327 4 5 4 13 1 16 -4 3 -6 66 -5 139
1 73 1 147 0 163 -4 150 -3 318 4 322 4 2 4 9 1 15 -3 5 -6 69 -5 141 1 73 1
146 0 162 -4 123 -3 213 3 231 4 12 4 25 1 28 -3 3 -5 47 -4 98 1 51 1 102 1
114 l0 21 1033 1 c567 0 1043 4 1057 7 47 12 76 22 102 36 10 5 25 9 33 9 8 0
15 5 15 10 0 6 5 10 10 10 20 0 125 99 155 145 70 108 83 174 82 425 0 231 -4
263 -47 357 -31 67 -45 86 -105 145 -39 39 -135 104 -135 92 0 -4 -6 -2 -12 4
-15 11 -83 31 -131 37 -18 3 -488 5 -1044 5 -888 0 -1013 2 -1014 15 -4 69 -3
115 4 115 5 0 5 5 1 11 -6 10 -9 220 -4 244 1 6 2 12 0 15 -5 14 -2 188 4 198
3 6 3 13 -2 16 -6 4 -8 60 -1 92 1 5 1 11 -1 14 -1 3 -1 48 -1 100 1 52 1 109
0 125 -1 40 -1 85 0 110 1 20 8 20 999 19 931 -1 1046 -3 1102 -27 8 -4 53
-18 100 -33 110 -34 378 -162 388 -186 2 -5 8 -8 14 -8 23 0 233 -166 318
-250 28 -29 99 -107 148 -164 34 -41 128 -178 159 -236 30 -55 84 -162 98
-195 28 -67 46 -113 51 -130 1 -5 10 -32 19 -59 9 -26 18 -56 20 -65 1 -9 8
-34 14 -56 13 -52 22 -103 40 -235 10 -74 8 -368 -3 -450 -10 -76 -55 -276
-72 -325 -8 -22 -17 -47 -19 -55 -17 -70 -106 -259 -162 -347 -18 -28 -33 -54
-33 -58 0 -3 -5 -11 -10 -18 -6 -7 -29 -37 -51 -67 -22 -30 -52 -71 -67 -90
-39 -51 -230 -240 -277 -275 -22 -16 -42 -32 -45 -36 -16 -21 -222 -145 -320
-192 -148 -72 -338 -135 -455 -152 -22 -3 -46 -8 -54 -11 -13 -4 -52 -8 -171
-18 -19 -2 -48 2 -65 8 -16 7 -68 13 -115 14 -73 2 -108 -3 -210 -29 -8 -2
-17 -6 -20 -9 -3 -3 -27 -16 -54 -30 -66 -34 -165 -134 -203 -206 -40 -75 -56
-134 -66 -236 -4 -36 8 -138 20 -168 3 -8 7 -20 9 -27 5 -25 73 -159 91 -180
113 -130 99 -115 1508 -1536 l405 -407 811 0 810 0 -395 398 c-349 350 -1311
1320 -1485 1496 l-65 65 30 11 c49 19 255 125 328 168 37 23 72 42 77 42 5 0
9 5 9 10 0 6 6 10 13 10 7 0 22 8 33 18 10 9 33 26 49 36 37 23 128 90 177
131 20 16 58 48 85 70 61 51 285 276 338 340 46 55 143 182 165 215 8 12 21
28 28 36 6 7 12 15 12 18 0 8 63 100 74 108 6 4 7 8 2 8 -5 0 -3 7 4 15 50 60
255 496 275 585 2 8 12 42 23 75 19 54 39 125 47 165 2 8 8 35 14 60 19 77 21
83 36 173 20 113 30 199 30 260 0 26 3 47 6 47 7 0 3 430 -4 500 -14 123 -26
207 -41 280 -3 14 -13 60 -21 102 -9 42 -25 107 -36 145 -11 37 -22 75 -24 83
-24 99 -146 394 -222 533 -23 44 -43 84 -43 89 0 4 -3 8 -8 8 -4 0 -14 15 -21
33 -8 17 -20 37 -25 43 -6 7 -28 38 -48 70 -66 103 -79 121 -105 149 -7 8 -13
17 -13 20 0 7 -107 139 -145 180 -129 138 -267 271 -343 330 -14 11 -42 34
-61 51 -37 33 -294 207 -346 235 -17 9 -57 31 -90 49 -95 52 -126 67 -196 99
-118 52 -384 146 -439 154 -8 2 -20 6 -26 9 -6 4 -26 10 -45 13 -19 3 -59 11
-89 17 -30 7 -59 13 -65 13 -5 1 -41 7 -80 13 -116 19 -138 22 -185 28 -25 2
-607 6 -1295 8 -1032 3 -1261 1 -1315 -10z"/>
</g>
</svg>
